<svg xmlns="http://www.w3.org/2000/svg" viewBox="0 0 630.32 847.18">
  <title>Логотип новый</title>
  <g id="Слой_2" data-name="Слой 2">
    <g id="Слой_2-2" data-name="Слой 2">
      <g>
        <g id="Слой_2-3" data-name="Слой 2">
          <path d="M311.76,575.36H257a10.37,10.37,0,0,1-7.29-3c-51.26-50.81-76.43-127.81-22-169.24,58-44.12,16.28-97.53-.29-123-2.4-3.69-1.07-8.29,3.49-8.29H399.39c4.56,0,5.89,4.6,3.49,8.29-16.57,25.48-58.24,78.89-.28,123,54.42,41.43,29.24,118.43-22,169.24a10.41,10.41,0,0,1-7.3,3H311.76Z" style="fill: none;stroke: #201600;stroke-linecap: round;stroke-linejoin: round;stroke-width: 11.467150188955202px"/>
        </g>
        <g>
          <path d="M203,92.82S65.5,164.3,9.12,167.43c-33,1.84,115.33-100.69,166.57-137.92a12.82,12.82,0,0,1,2.72-1.65C341.5-35.64,530.48,48.58,568.06,59c4.85,1.34,9.64,2.87,14.44,1.32,15.14-4.9,34.23-13.13,43.45-41.6" style="fill: none;stroke: #201600;stroke-linecap: round;stroke-linejoin: round;stroke-width: 8.74278596749491px"/>
          <path d="M100.11,140.48S35.66,202,44.3,213.72,189,142.59,222.9,99.39" style="fill: none;stroke: #201600;stroke-linecap: round;stroke-linejoin: round;stroke-width: 8.74278596749491px"/>
          <path d="M157.6,155s-69.07,78.24-47.88,84c12.43,3.38,158.47-127.45,158.47-127.45" style="fill: none;stroke: #201600;stroke-linecap: round;stroke-linejoin: round;stroke-width: 8.74278596749491px"/>
          <path d="M386.19,73S213.39,45.85,198,86c-2.52,12.61,113.55,34.56,165,47.72,2.94.76,107.48,46.11,178.76,4.74" style="fill: none;stroke: #201600;stroke-linecap: round;stroke-linejoin: round;stroke-width: 8.74278596749491px"/>
        </g>
        <g>
          <path d="M427.3,754.37s137.52-71.49,193.9-74.62c33-1.83-115.33,100.69-166.57,137.92a12.82,12.82,0,0,1-2.72,1.65C288.82,882.82,99.84,798.6,62.27,788.21c-4.86-1.35-9.65-2.87-14.45-1.32C32.68,791.78,13.59,800,4.37,828.48" style="fill: none;stroke: #201600;stroke-linecap: round;stroke-linejoin: round;stroke-width: 8.74278596749491px"/>
          <path d="M530.22,706.71s64.44-61.52,55.8-73.24-144.66,71.12-178.6,114.32" style="fill: none;stroke: #201600;stroke-linecap: round;stroke-linejoin: round;stroke-width: 8.74278596749491px"/>
          <path d="M472.72,692.16s69.08-78.24,47.89-84c-12.44-3.38-158.47,127.45-158.47,127.45" style="fill: none;stroke: #201600;stroke-linecap: round;stroke-linejoin: round;stroke-width: 8.74278596749491px"/>
          <path d="M244.13,774.17s172.8,27.16,188.23-13c2.51-12.6-113.56-34.56-165-47.72-2.93-.75-107.48-46.11-178.76-4.73" style="fill: none;stroke: #201600;stroke-linecap: round;stroke-linejoin: round;stroke-width: 8.74278596749491px"/>
        </g>
      </g>
    </g>
  </g>
</svg>
