<svg xmlns="http://www.w3.org/2000/svg" viewBox="0 0 1407.95 630.32">
  <title>лого новое с текстом</title>
  <g id="Слой_2" data-name="Слой 2">
    <g id="Слой_2-2" data-name="Слой 2">
      <g>
        <g id="Слой_2-3" data-name="Слой 2">
          <path d="M369,447.51H321.26a9,9,0,0,1-6.36-2.62c-44.7-44.3-66.65-111.45-19.19-147.58,50.54-38.48,14.2-85.05-.25-107.28-2.1-3.21-.93-7.22,3-7.22H445.41c4,0,5.14,4,3,7.22-14.45,22.23-50.79,68.8-.25,107.28,47.46,36.13,25.51,103.28-19.19,147.58a9,9,0,0,1-6.36,2.62H369Z" style="fill: none;stroke: #201600;stroke-linecap: round;stroke-linejoin: round;stroke-width: 10px"/>
        </g>
        <g>
          <path d="M651.09,203S579.61,65.5,576.48,9.12c-1.84-33,100.69,115.33,137.92,166.57a12.82,12.82,0,0,1,1.65,2.72c63.5,163.09-20.72,352.07-31.12,389.65-1.34,4.85-2.87,9.64-1.32,14.44,4.9,15.14,13.13,34.23,41.6,43.45" style="fill: none;stroke: #201600;stroke-linecap: round;stroke-linejoin: round;stroke-width: 8.742790000000001px"/>
          <path d="M603.43,100.11S541.92,35.66,530.19,44.3,601.32,189,644.52,222.9" style="fill: none;stroke: #201600;stroke-linecap: round;stroke-linejoin: round;stroke-width: 8.742790000000001px"/>
          <path d="M588.89,157.6s-78.24-69.07-84-47.88c-3.38,12.43,127.45,158.47,127.45,158.47" style="fill: none;stroke: #201600;stroke-linecap: round;stroke-linejoin: round;stroke-width: 8.742790000000001px"/>
          <path d="M670.9,386.19s27.16-172.8-13-188.22c-12.61-2.52-34.56,113.55-47.72,165-.76,2.94-46.12,107.48-4.74,178.76" style="fill: none;stroke: #201600;stroke-linecap: round;stroke-linejoin: round;stroke-width: 8.742790000000001px"/>
        </g>
        <g>
          <path d="M92.82,427.3s71.48,137.52,74.61,193.9c1.84,33-100.69-115.33-137.92-166.57a12.82,12.82,0,0,1-1.65-2.72C-35.64,288.82,48.58,99.84,59,62.27c1.34-4.86,2.87-9.65,1.32-14.45C55.4,32.68,47.17,13.59,18.7,4.37" style="fill: none;stroke: #201600;stroke-linecap: round;stroke-linejoin: round;stroke-width: 8.742790000000001px"/>
          <path d="M140.48,530.22S202,594.66,213.72,586,142.59,441.36,99.39,407.42" style="fill: none;stroke: #201600;stroke-linecap: round;stroke-linejoin: round;stroke-width: 8.742790000000001px"/>
          <path d="M155,472.72s78.24,69.08,84,47.89c3.38-12.44-127.45-158.47-127.45-158.47" style="fill: none;stroke: #201600;stroke-linecap: round;stroke-linejoin: round;stroke-width: 8.742790000000001px"/>
          <path d="M73,244.13S45.85,416.93,86,432.36c12.61,2.51,34.56-113.56,47.72-165,.76-2.93,46.11-107.48,4.74-178.76" style="fill: none;stroke: #201600;stroke-linecap: round;stroke-linejoin: round;stroke-width: 8.742790000000001px"/>
        </g>
      </g>
      <g>
        <path d="M888.37,223.57h9v63.89h-9Zm4.39,0h31.42v8.52H892.76Z"/>
        <path d="M942.33,285.2a20,20,0,0,1-7.89-8.26,26.35,26.35,0,0,1-2.79-12.37V246.46a26.33,26.33,0,0,1,2.79-12.37,20,20,0,0,1,7.89-8.26,25.2,25.2,0,0,1,23.55,0,20,20,0,0,1,7.89,8.26,26.33,26.33,0,0,1,2.79,12.37v18.11a26.35,26.35,0,0,1-2.79,12.37,20,20,0,0,1-7.89,8.26,25.2,25.2,0,0,1-23.55,0Zm18.74-7.69a12,12,0,0,0,4.66-5.06,16.59,16.59,0,0,0,1.65-7.58V246.15a16.65,16.65,0,0,0-1.65-7.58,12,12,0,0,0-4.66-5,14.52,14.52,0,0,0-13.93,0,12.06,12.06,0,0,0-4.66,5,16.78,16.78,0,0,0-1.64,7.58v18.72a16.72,16.72,0,0,0,1.64,7.58,12,12,0,0,0,4.66,5.06,14.52,14.52,0,0,0,13.93,0Z"/>
        <path d="M990.19,223.57h9v63.89h-9Zm5.58,28.16h35.46v8.53H995.77Zm30.72-28.16h9v63.89h-9Z"/>
        <path d="M1058.39,265.09a15.53,15.53,0,0,1-6.61-6.92,24.34,24.34,0,0,1-2.27-11V223.57h9v24q0,5.31,2.94,8.21c2,1.94,4.73,2.9,8.31,2.9q6.24,0,9.67-3.14t3.42-8.85v-5.06h2.82v4.75a29.68,29.68,0,0,1-2,11.43,15.49,15.49,0,0,1-5.74,7.22,16,16,0,0,1-9.07,2.49A21.47,21.47,0,0,1,1058.39,265.09Zm24.43-41.52h9v63.89h-9Z"/>
        <path d="M1125,223.57h7.65l23.55,63.89h-9.67l-17.71-51.55-17.71,51.55h-9.66Zm-12.7,41.35h33.62v8.52h-33.62Z"/>
        <path d="M1165.88,223.57h9v63.89h-9Zm4.61,30.58h20.44a9.49,9.49,0,0,0,5.1-1.36,9.05,9.05,0,0,0,3.4-3.87,13,13,0,0,0,1.21-5.75,13.17,13.17,0,0,0-1.21-5.81,9.14,9.14,0,0,0-3.4-3.88,9.33,9.33,0,0,0-5.1-1.39h-20.44v-8.52h20.13a20.17,20.17,0,0,1,10.06,2.44,16.85,16.85,0,0,1,6.75,6.87,23.19,23.19,0,0,1,0,20.55,16.82,16.82,0,0,1-6.75,6.83,20.38,20.38,0,0,1-10.06,2.42h-20.13Z"/>
        <path d="M1222.35,223.57h9v63.89h-9Zm5.58,28.16h35.46v8.53h-35.46Zm30.72-28.16h9v63.89h-9Z"/>
        <path d="M1300,223.57h7.64l23.56,63.89h-9.67l-17.71-51.55-17.71,51.55h-9.67Zm-12.7,41.35h33.61v8.52h-33.61Z"/>
        <path d="M1354.32,257.76l8.92,2-15.52,27.68h-10.63Zm-3.69,4-4.2-2.37a16.53,16.53,0,0,1-6.53-6.7,22.88,22.88,0,0,1,0-20.08,16.48,16.48,0,0,1,6.5-6.71,19.49,19.49,0,0,1,9.74-2.37h21v8.53h-21.35a7.93,7.93,0,0,0-4.55,1.32,8.42,8.42,0,0,0-3,3.71,14.85,14.85,0,0,0,0,11.12,8.51,8.51,0,0,0,3,3.71,8,8,0,0,0,4.53,1.32h21.35v8.52h-26.49Zm21.44-38.23h9v63.94h-9Z"/>
        <path d="M907.37,331.57h8.39v63.89H907V347.61l.44,2.81-15.73,36.17h-6.24L869.75,351.3l.44-3.69v47.85h-8.74V331.57h8.39l18.77,42.18Z"/>
        <path d="M948.11,331.57h7.65l23.55,63.89h-9.67l-17.71-51.55-17.71,51.55h-9.67Zm-12.7,41.35H969v8.52H935.41Z"/>
        <path d="M1001.5,396.12l-5-2.94a20.11,20.11,0,0,1-7.8-8.35,27.08,27.08,0,0,1-2.77-12.53V354.77a27.08,27.08,0,0,1,2.77-12.53,20.23,20.23,0,0,1,7.8-8.37,22.62,22.62,0,0,1,11.67-3,21.93,21.93,0,0,1,10.11,2.35,21.34,21.34,0,0,1,7.71,6.66,25,25,0,0,1,4.19,10H1021a14.39,14.39,0,0,0-2.79-5.34,13.56,13.56,0,0,0-4.59-3.62,12.87,12.87,0,0,0-12.31.61,12.62,12.62,0,0,0-4.57,5.3,18.26,18.26,0,0,0-1.62,7.93V372.3a18.29,18.29,0,0,0,1.62,7.91,12.07,12.07,0,0,0,11.43,7.17,13.11,13.11,0,0,0,5.47-1.19,12.79,12.79,0,0,0,4.57-3.52,14,14,0,0,0,2.79-5.53h9.18a24.73,24.73,0,0,1-4.21,10,21.53,21.53,0,0,1-7.74,6.66,21.79,21.79,0,0,1-10.06,2.35Z"/>
        <path d="M1034.11,331.57h45.09v8.52h-45.09Zm18.06,5.23h9v58.66h-9Z"/>
        <path d="M1088,331.57h9v63.89h-9Zm4.35,0H1129v8.52h-36.69Zm0,27.9h31.86V368h-31.86Zm0,27.47H1129v8.52h-36.69Z"/>
        <path d="M1141.78,331.57h9v63.89h-9Zm4.61,30.58h20.43a9.44,9.44,0,0,0,5.1-1.36,9.07,9.07,0,0,0,3.41-3.87,13.17,13.17,0,0,0,1.21-5.75,13.31,13.31,0,0,0-1.21-5.81,9.16,9.16,0,0,0-3.41-3.88,9.28,9.28,0,0,0-5.1-1.39h-20.43v-8.52h20.13a20.17,20.17,0,0,1,10.06,2.44,16.92,16.92,0,0,1,6.75,6.87,23.28,23.28,0,0,1,0,20.55,16.88,16.88,0,0,1-6.75,6.83,20.38,20.38,0,0,1-10.06,2.42h-20.13Z"/>
        <path d="M1211.21,396.12l-5-2.94a20,20,0,0,1-7.8-8.35,27.08,27.08,0,0,1-2.77-12.53V354.77a27.08,27.08,0,0,1,2.77-12.53,20.1,20.1,0,0,1,7.8-8.37,22.6,22.6,0,0,1,11.67-3,21.86,21.86,0,0,1,10.1,2.35,21.29,21.29,0,0,1,7.72,6.66,25,25,0,0,1,4.19,10h-9.18a14.39,14.39,0,0,0-2.79-5.34,13.69,13.69,0,0,0-4.6-3.62,12.85,12.85,0,0,0-12.3.61,12.56,12.56,0,0,0-4.57,5.3,18.26,18.26,0,0,0-1.63,7.93V372.3a18.29,18.29,0,0,0,1.63,7.91,12.38,12.38,0,0,0,4.57,5.3,12.57,12.57,0,0,0,6.86,1.87,13.15,13.15,0,0,0,5.47-1.19,12.87,12.87,0,0,0,4.57-3.52,14,14,0,0,0,2.79-5.53h9.18a24.74,24.74,0,0,1-4.22,10,21.58,21.58,0,0,1-7.73,6.66,21.82,21.82,0,0,1-10.06,2.35Z"/>
        <path d="M1251.73,331.57h9v63.89h-9Zm4.35,27.9h20V368h-20Zm12.08,7.87,7.87-4.62,24.65,32.74h-12.43Zm0-6.95,18.54-28.82H1298l-25.27,36.69Z"/>
        <path d="M1326.87,331.57h7.65l23.55,63.89h-9.66l-17.71-51.55L1313,395.46h-9.67Zm-12.7,41.35h33.62v8.52h-33.62Z"/>
        <path d="M1381.23,365.76l8.92,2-15.51,27.68H1364Zm-3.69,4-4.19-2.37a16.46,16.46,0,0,1-6.53-6.7,22.88,22.88,0,0,1,0-20.08,16.42,16.42,0,0,1,6.5-6.71,19.46,19.46,0,0,1,9.74-2.37h21v8.53h-21.36a7.92,7.92,0,0,0-4.54,1.32,8.51,8.51,0,0,0-3,3.71,15,15,0,0,0,0,11.12,8.59,8.59,0,0,0,3.06,3.71,8,8,0,0,0,4.52,1.32H1404v8.52h-26.5ZM1399,331.52h9v63.94h-9Z"/>
      </g>
      <line x1="806.96" y1="115.93" x2="806.96" y2="514.4" style="fill: none;stroke: #201600;stroke-linecap: round;stroke-linejoin: round;stroke-width: 5px"/>
      <text/>    </g>
  </g>
</svg>
